ISO-10303-21;
HEADER;
/* Generated by software containing ST-Developer
 * from STEP Tools, Inc. (www.steptools.com) 
 */

FILE_DESCRIPTION(
/* description */ (''),
/* implementation_level */ '2;1');

FILE_NAME(
/* name */ 'impossible-cube.step',
/* time_stamp */ '2026-09-26T12:33:55+04:00',
/* author */ (''),
/* organization */ (''),
/* preprocessor_version */ 'ST-DEVELOPER v20.2',
/* originating_system */ 'Autodesk Translation Framework v15.15.0.0',
/* authorisation */ '');

FILE_SCHEMA (('AUTOMOTIVE_DESIGN { 1 0 10303 214 3 1 1 }'));
ENDSEC;

DATA;
#10=MECHANICAL_DESIGN_GEOMETRIC_PRESENTATION_REPRESENTATION('',(#13),#1223);
#11=SHAPE_REPRESENTATION_RELATIONSHIP('SRR','None',#1230,#12);
#12=ADVANCED_BREP_SHAPE_REPRESENTATION('',(#14),#1222);
#13=STYLED_ITEM('',(#1239),#14);
#14=MANIFOLD_SOLID_BREP('Body11',#771);
#15=FACE_OUTER_BOUND('',#51,.T.);
#16=FACE_OUTER_BOUND('',#52,.T.);
#17=FACE_OUTER_BOUND('',#53,.T.);
#18=FACE_OUTER_BOUND('',#54,.T.);
#19=FACE_OUTER_BOUND('',#55,.T.);
#20=FACE_OUTER_BOUND('',#56,.T.);
#21=FACE_OUTER_BOUND('',#57,.T.);
#22=FACE_OUTER_BOUND('',#58,.T.);
#23=FACE_OUTER_BOUND('',#59,.T.);
#24=FACE_OUTER_BOUND('',#60,.T.);
#25=FACE_OUTER_BOUND('',#61,.T.);
#26=FACE_OUTER_BOUND('',#62,.T.);
#27=FACE_OUTER_BOUND('',#63,.T.);
#28=FACE_OUTER_BOUND('',#64,.T.);
#29=FACE_OUTER_BOUND('',#65,.T.);
#30=FACE_OUTER_BOUND('',#66,.T.);
#31=FACE_OUTER_BOUND('',#67,.T.);
#32=FACE_OUTER_BOUND('',#68,.T.);
#33=FACE_OUTER_BOUND('',#69,.T.);
#34=FACE_OUTER_BOUND('',#70,.T.);
#35=FACE_OUTER_BOUND('',#71,.T.);
#36=FACE_OUTER_BOUND('',#72,.T.);
#37=FACE_OUTER_BOUND('',#73,.T.);
#38=FACE_OUTER_BOUND('',#74,.T.);
#39=FACE_OUTER_BOUND('',#75,.T.);
#40=FACE_OUTER_BOUND('',#76,.T.);
#41=FACE_OUTER_BOUND('',#77,.T.);
#42=FACE_OUTER_BOUND('',#78,.T.);
#43=FACE_OUTER_BOUND('',#79,.T.);
#44=FACE_OUTER_BOUND('',#80,.T.);
#45=FACE_OUTER_BOUND('',#81,.T.);
#46=FACE_OUTER_BOUND('',#82,.T.);
#47=FACE_OUTER_BOUND('',#83,.T.);
#48=FACE_OUTER_BOUND('',#84,.T.);
#49=FACE_OUTER_BOUND('',#85,.T.);
#50=FACE_OUTER_BOUND('',#86,.T.);
#51=EDGE_LOOP('',(#483,#484,#485,#486));
#52=EDGE_LOOP('',(#487,#488,#489,#490));
#53=EDGE_LOOP('',(#491,#492,#493,#494,#495,#496,#497,#498,#499,#500));
#54=EDGE_LOOP('',(#501,#502,#503,#504,#505,#506,#507,#508,#509,#510));
#55=EDGE_LOOP('',(#511,#512,#513,#514,#515,#516,#517,#518,#519,#520));
#56=EDGE_LOOP('',(#521,#522,#523,#524));
#57=EDGE_LOOP('',(#525,#526,#527,#528));
#58=EDGE_LOOP('',(#529,#530,#531,#532));
#59=EDGE_LOOP('',(#533,#534,#535,#536));
#60=EDGE_LOOP('',(#537,#538,#539,#540,#541,#542,#543,#544,#545,#546));
#61=EDGE_LOOP('',(#547,#548,#549,#550));
#62=EDGE_LOOP('',(#551,#552,#553,#554));
#63=EDGE_LOOP('',(#555,#556,#557,#558));
#64=EDGE_LOOP('',(#559,#560,#561,#562));
#65=EDGE_LOOP('',(#563,#564,#565,#566));
#66=EDGE_LOOP('',(#567,#568,#569,#570,#571,#572,#573,#574,#575,#576));
#67=EDGE_LOOP('',(#577,#578,#579,#580));
#68=EDGE_LOOP('',(#581,#582,#583,#584));
#69=EDGE_LOOP('',(#585,#586,#587,#588));
#70=EDGE_LOOP('',(#589,#590,#591,#592));
#71=EDGE_LOOP('',(#593,#594,#595,#596,#597,#598,#599,#600,#601,#602));
#72=EDGE_LOOP('',(#603,#604,#605,#606,#607,#608,#609,#610,#611,#612));
#73=EDGE_LOOP('',(#613,#614,#615,#616));
#74=EDGE_LOOP('',(#617,#618,#619,#620));
#75=EDGE_LOOP('',(#621,#622,#623,#624,#625,#626,#627,#628,#629,#630));
#76=EDGE_LOOP('',(#631,#632,#633,#634));
#77=EDGE_LOOP('',(#635,#636,#637,#638,#639,#640,#641,#642,#643,#644));
#78=EDGE_LOOP('',(#645,#646,#647,#648));
#79=EDGE_LOOP('',(#649,#650,#651,#652));
#80=EDGE_LOOP('',(#653,#654,#655,#656,#657,#658,#659,#660,#661,#662));
#81=EDGE_LOOP('',(#663,#664,#665,#666));
#82=EDGE_LOOP('',(#667,#668,#669,#670));
#83=EDGE_LOOP('',(#671,#672,#673,#674));
#84=EDGE_LOOP('',(#675,#676,#677,#678,#679,#680,#681,#682,#683,#684));
#85=EDGE_LOOP('',(#685,#686,#687,#688));
#86=EDGE_LOOP('',(#689,#690,#691,#692,#693,#694,#695,#696,#697,#698));
#87=LINE('',#1007,#195);
#88=LINE('',#1009,#196);
#89=LINE('',#1011,#197);
#90=LINE('',#1012,#198);
#91=LINE('',#1015,#199);
#92=LINE('',#1017,#200);
#93=LINE('',#1018,#201);
#94=LINE('',#1022,#202);
#95=LINE('',#1024,#203);
#96=LINE('',#1026,#204);
#97=LINE('',#1027,#205);
#98=LINE('',#1029,#206);
#99=LINE('',#1031,#207);
#100=LINE('',#1033,#208);
#101=LINE('',#1034,#209);
#102=LINE('',#1037,#210);
#103=LINE('',#1039,#211);
#104=LINE('',#1041,#212);
#105=LINE('',#1043,#213);
#106=LINE('',#1045,#214);
#107=LINE('',#1047,#215);
#108=LINE('',#1049,#216);
#109=LINE('',#1050,#217);
#110=LINE('',#1053,#218);
#111=LINE('',#1055,#219);
#112=LINE('',#1057,#220);
#113=LINE('',#1059,#221);
#114=LINE('',#1061,#222);
#115=LINE('',#1063,#223);
#116=LINE('',#1065,#224);
#117=LINE('',#1066,#225);
#118=LINE('',#1069,#226);
#119=LINE('',#1070,#227);
#120=LINE('',#1073,#228);
#121=LINE('',#1075,#229);
#122=LINE('',#1076,#230);
#123=LINE('',#1080,#231);
#124=LINE('',#1082,#232);
#125=LINE('',#1084,#233);
#126=LINE('',#1085,#234);
#127=LINE('',#1088,#235);
#128=LINE('',#1090,#236);
#129=LINE('',#1091,#237);
#130=LINE('',#1094,#238);
#131=LINE('',#1096,#239);
#132=LINE('',#1098,#240);
#133=LINE('',#1100,#241);
#134=LINE('',#1102,#242);
#135=LINE('',#1104,#243);
#136=LINE('',#1106,#244);
#137=LINE('',#1108,#245);
#138=LINE('',#1109,#246);
#139=LINE('',#1112,#247);
#140=LINE('',#1114,#248);
#141=LINE('',#1115,#249);
#142=LINE('',#1118,#250);
#143=LINE('',#1119,#251);
#144=LINE('',#1122,#252);
#145=LINE('',#1124,#253);
#146=LINE('',#1125,#254);
#147=LINE('',#1128,#255);
#148=LINE('',#1129,#256);
#149=LINE('',#1132,#257);
#150=LINE('',#1134,#258);
#151=LINE('',#1135,#259);
#152=LINE('',#1139,#260);
#153=LINE('',#1141,#261);
#154=LINE('',#1143,#262);
#155=LINE('',#1144,#263);
#156=LINE('',#1145,#264);
#157=LINE('',#1146,#265);
#158=LINE('',#1149,#266);
#159=LINE('',#1151,#267);
#160=LINE('',#1152,#268);
#161=LINE('',#1155,#269);
#162=LINE('',#1156,#270);
#163=LINE('',#1159,#271);
#164=LINE('',#1160,#272);
#165=LINE('',#1162,#273);
#166=LINE('',#1164,#274);
#167=LINE('',#1166,#275);
#168=LINE('',#1167,#276);
#169=LINE('',#1168,#277);
#170=LINE('',#1170,#278);
#171=LINE('',#1172,#279);
#172=LINE('',#1174,#280);
#173=LINE('',#1175,#281);
#174=LINE('',#1178,#282);
#175=LINE('',#1180,#283);
#176=LINE('',#1182,#284);
#177=LINE('',#1183,#285);
#178=LINE('',#1187,#286);
#179=LINE('',#1189,#287);
#180=LINE('',#1190,#288);
#181=LINE('',#1193,#289);
#182=LINE('',#1195,#290);
#183=LINE('',#1196,#291);
#184=LINE('',#1199,#292);
#185=LINE('',#1200,#293);
#186=LINE('',#1203,#294);
#187=LINE('',#1204,#295);
#188=LINE('',#1206,#296);
#189=LINE('',#1208,#297);
#190=LINE('',#1212,#298);
#191=LINE('',#1213,#299);
#192=LINE('',#1214,#300);
#193=LINE('',#1216,#301);
#194=LINE('',#1218,#302);
#195=VECTOR('',#825,5.);
#196=VECTOR('',#826,5.);
#197=VECTOR('',#827,5.);
#198=VECTOR('',#828,5.);
#199=VECTOR('',#831,5.);
#200=VECTOR('',#832,5.);
#201=VECTOR('',#833,5.);
#202=VECTOR('',#836,5.);
#203=VECTOR('',#837,5.);
#204=VECTOR('',#838,5.);
#205=VECTOR('',#839,5.);
#206=VECTOR('',#840,5.);
#207=VECTOR('',#841,5.);
#208=VECTOR('',#842,5.);
#209=VECTOR('',#843,5.);
#210=VECTOR('',#846,5.);
#211=VECTOR('',#847,5.);
#212=VECTOR('',#848,5.);
#213=VECTOR('',#849,5.);
#214=VECTOR('',#850,5.);
#215=VECTOR('',#851,5.);
#216=VECTOR('',#852,5.);
#217=VECTOR('',#853,5.);
#218=VECTOR('',#856,5.);
#219=VECTOR('',#857,5.);
#220=VECTOR('',#858,5.);
#221=VECTOR('',#859,5.);
#222=VECTOR('',#860,5.);
#223=VECTOR('',#861,5.);
#224=VECTOR('',#862,5.);
#225=VECTOR('',#863,5.);
#226=VECTOR('',#866,5.);
#227=VECTOR('',#867,5.);
#228=VECTOR('',#870,5.);
#229=VECTOR('',#871,5.);
#230=VECTOR('',#872,5.);
#231=VECTOR('',#875,5.);
#232=VECTOR('',#876,5.);
#233=VECTOR('',#877,5.);
#234=VECTOR('',#878,5.);
#235=VECTOR('',#881,5.);
#236=VECTOR('',#882,5.);
#237=VECTOR('',#883,5.);
#238=VECTOR('',#886,5.);
#239=VECTOR('',#887,5.);
#240=VECTOR('',#888,5.);
#241=VECTOR('',#889,5.);
#242=VECTOR('',#890,5.);
#243=VECTOR('',#891,5.);
#244=VECTOR('',#892,5.);
#245=VECTOR('',#893,5.);
#246=VECTOR('',#894,5.);
#247=VECTOR('',#897,5.);
#248=VECTOR('',#898,5.);
#249=VECTOR('',#899,5.);
#250=VECTOR('',#902,5.);
#251=VECTOR('',#903,5.);
#252=VECTOR('',#906,5.);
#253=VECTOR('',#907,5.);
#254=VECTOR('',#908,5.);
#255=VECTOR('',#911,5.);
#256=VECTOR('',#912,5.);
#257=VECTOR('',#915,5.);
#258=VECTOR('',#916,5.);
#259=VECTOR('',#917,5.);
#260=VECTOR('',#920,5.);
#261=VECTOR('',#921,5.);
#262=VECTOR('',#922,5.);
#263=VECTOR('',#923,5.);
#264=VECTOR('',#924,5.);
#265=VECTOR('',#925,5.);
#266=VECTOR('',#928,5.);
#267=VECTOR('',#929,5.);
#268=VECTOR('',#930,5.);
#269=VECTOR('',#933,5.);
#270=VECTOR('',#934,5.);
#271=VECTOR('',#937,5.);
#272=VECTOR('',#938,5.);
#273=VECTOR('',#941,5.);
#274=VECTOR('',#944,5.);
#275=VECTOR('',#945,5.);
#276=VECTOR('',#946,5.);
#277=VECTOR('',#947,5.);
#278=VECTOR('',#950,5.);
#279=VECTOR('',#951,5.);
#280=VECTOR('',#952,5.);
#281=VECTOR('',#953,5.);
#282=VECTOR('',#958,5.);
#283=VECTOR('',#961,5.);
#284=VECTOR('',#962,5.);
#285=VECTOR('',#963,5.);
#286=VECTOR('',#968,5.);
#287=VECTOR('',#969,5.);
#288=VECTOR('',#970,5.);
#289=VECTOR('',#973,5.);
#290=VECTOR('',#974,5.);
#291=VECTOR('',#975,5.);
#292=VECTOR('',#978,5.);
#293=VECTOR('',#979,5.);
#294=VECTOR('',#982,5.);
#295=VECTOR('',#983,5.);
#296=VECTOR('',#986,5.);
#297=VECTOR('',#989,5.);
#298=VECTOR('',#992,5.);
#299=VECTOR('',#993,5.);
#300=VECTOR('',#994,5.);
#301=VECTOR('',#997,5.);
#302=VECTOR('',#1000,5.);
#303=VERTEX_POINT('',#1005);
#304=VERTEX_POINT('',#1006);
#305=VERTEX_POINT('',#1008);
#306=VERTEX_POINT('',#1010);
#307=VERTEX_POINT('',#1014);
#308=VERTEX_POINT('',#1016);
#309=VERTEX_POINT('',#1020);
#310=VERTEX_POINT('',#1021);
#311=VERTEX_POINT('',#1023);
#312=VERTEX_POINT('',#1025);
#313=VERTEX_POINT('',#1028);
#314=VERTEX_POINT('',#1030);
#315=VERTEX_POINT('',#1032);
#316=VERTEX_POINT('',#1036);
#317=VERTEX_POINT('',#1038);
#318=VERTEX_POINT('',#1040);
#319=VERTEX_POINT('',#1042);
#320=VERTEX_POINT('',#1044);
#321=VERTEX_POINT('',#1046);
#322=VERTEX_POINT('',#1048);
#323=VERTEX_POINT('',#1052);
#324=VERTEX_POINT('',#1054);
#325=VERTEX_POINT('',#1056);
#326=VERTEX_POINT('',#1058);
#327=VERTEX_POINT('',#1060);
#328=VERTEX_POINT('',#1062);
#329=VERTEX_POINT('',#1064);
#330=VERTEX_POINT('',#1068);
#331=VERTEX_POINT('',#1072);
#332=VERTEX_POINT('',#1074);
#333=VERTEX_POINT('',#1078);
#334=VERTEX_POINT('',#1079);
#335=VERTEX_POINT('',#1081);
#336=VERTEX_POINT('',#1083);
#337=VERTEX_POINT('',#1087);
#338=VERTEX_POINT('',#1089);
#339=VERTEX_POINT('',#1093);
#340=VERTEX_POINT('',#1095);
#341=VERTEX_POINT('',#1097);
#342=VERTEX_POINT('',#1099);
#343=VERTEX_POINT('',#1101);
#344=VERTEX_POINT('',#1103);
#345=VERTEX_POINT('',#1105);
#346=VERTEX_POINT('',#1107);
#347=VERTEX_POINT('',#1111);
#348=VERTEX_POINT('',#1113);
#349=VERTEX_POINT('',#1117);
#350=VERTEX_POINT('',#1121);
#351=VERTEX_POINT('',#1123);
#352=VERTEX_POINT('',#1127);
#353=VERTEX_POINT('',#1131);
#354=VERTEX_POINT('',#1133);
#355=VERTEX_POINT('',#1137);
#356=VERTEX_POINT('',#1138);
#357=VERTEX_POINT('',#1140);
#358=VERTEX_POINT('',#1142);
#359=VERTEX_POINT('',#1148);
#360=VERTEX_POINT('',#1150);
#361=VERTEX_POINT('',#1154);
#362=VERTEX_POINT('',#1158);
#363=VERTEX_POINT('',#1165);
#364=VERTEX_POINT('',#1171);
#365=VERTEX_POINT('',#1173);
#366=VERTEX_POINT('',#1181);
#367=VERTEX_POINT('',#1186);
#368=VERTEX_POINT('',#1188);
#369=VERTEX_POINT('',#1192);
#370=VERTEX_POINT('',#1194);
#371=VERTEX_POINT('',#1198);
#372=VERTEX_POINT('',#1202);
#373=VERTEX_POINT('',#1210);
#374=VERTEX_POINT('',#1211);
#375=EDGE_CURVE('',#303,#304,#87,.T.);
#376=EDGE_CURVE('',#303,#305,#88,.T.);
#377=EDGE_CURVE('',#306,#305,#89,.T.);
#378=EDGE_CURVE('',#304,#306,#90,.T.);
#379=EDGE_CURVE('',#307,#304,#91,.T.);
#380=EDGE_CURVE('',#307,#308,#92,.T.);
#381=EDGE_CURVE('',#308,#303,#93,.T.);
#382=EDGE_CURVE('',#309,#310,#94,.T.);
#383=EDGE_CURVE('',#311,#309,#95,.T.);
#384=EDGE_CURVE('',#311,#312,#96,.T.);
#385=EDGE_CURVE('',#312,#307,#97,.T.);
#386=EDGE_CURVE('',#306,#313,#98,.T.);
#387=EDGE_CURVE('',#314,#313,#99,.T.);
#388=EDGE_CURVE('',#315,#314,#100,.T.);
#389=EDGE_CURVE('',#310,#315,#101,.T.);
#390=EDGE_CURVE('',#305,#316,#102,.T.);
#391=EDGE_CURVE('',#316,#317,#103,.T.);
#392=EDGE_CURVE('',#318,#317,#104,.T.);
#393=EDGE_CURVE('',#319,#318,#105,.T.);
#394=EDGE_CURVE('',#320,#319,#106,.T.);
#395=EDGE_CURVE('',#320,#321,#107,.T.);
#396=EDGE_CURVE('',#322,#321,#108,.T.);
#397=EDGE_CURVE('',#313,#322,#109,.T.);
#398=EDGE_CURVE('',#312,#323,#110,.T.);
#399=EDGE_CURVE('',#324,#323,#111,.T.);
#400=EDGE_CURVE('',#324,#325,#112,.T.);
#401=EDGE_CURVE('',#325,#326,#113,.T.);
#402=EDGE_CURVE('',#327,#326,#114,.T.);
#403=EDGE_CURVE('',#327,#328,#115,.T.);
#404=EDGE_CURVE('',#329,#328,#116,.T.);
#405=EDGE_CURVE('',#308,#329,#117,.T.);
#406=EDGE_CURVE('',#311,#330,#118,.T.);
#407=EDGE_CURVE('',#330,#323,#119,.T.);
#408=EDGE_CURVE('',#325,#331,#120,.T.);
#409=EDGE_CURVE('',#332,#331,#121,.T.);
#410=EDGE_CURVE('',#326,#332,#122,.T.);
#411=EDGE_CURVE('',#333,#334,#123,.T.);
#412=EDGE_CURVE('',#334,#335,#124,.T.);
#413=EDGE_CURVE('',#335,#336,#125,.T.);
#414=EDGE_CURVE('',#333,#336,#126,.T.);
#415=EDGE_CURVE('',#337,#331,#127,.T.);
#416=EDGE_CURVE('',#338,#337,#128,.T.);
#417=EDGE_CURVE('',#338,#332,#129,.T.);
#418=EDGE_CURVE('',#339,#337,#130,.T.);
#419=EDGE_CURVE('',#339,#340,#131,.T.);
#420=EDGE_CURVE('',#341,#340,#132,.T.);
#421=EDGE_CURVE('',#342,#341,#133,.T.);
#422=EDGE_CURVE('',#343,#342,#134,.T.);
#423=EDGE_CURVE('',#344,#343,#135,.T.);
#424=EDGE_CURVE('',#344,#345,#136,.T.);
#425=EDGE_CURVE('',#346,#345,#137,.T.);
#426=EDGE_CURVE('',#338,#346,#138,.T.);
#427=EDGE_CURVE('',#344,#347,#139,.T.);
#428=EDGE_CURVE('',#347,#348,#140,.T.);
#429=EDGE_CURVE('',#345,#348,#141,.T.);
#430=EDGE_CURVE('',#349,#346,#142,.T.);
#431=EDGE_CURVE('',#349,#348,#143,.T.);
#432=EDGE_CURVE('',#340,#350,#144,.T.);
#433=EDGE_CURVE('',#351,#350,#145,.T.);
#434=EDGE_CURVE('',#341,#351,#146,.T.);
#435=EDGE_CURVE('',#352,#350,#147,.T.);
#436=EDGE_CURVE('',#352,#339,#148,.T.);
#437=EDGE_CURVE('',#342,#353,#149,.T.);
#438=EDGE_CURVE('',#354,#353,#150,.T.);
#439=EDGE_CURVE('',#343,#354,#151,.T.);
#440=EDGE_CURVE('',#355,#356,#152,.T.);
#441=EDGE_CURVE('',#355,#357,#153,.T.);
#442=EDGE_CURVE('',#358,#357,#154,.T.);
#443=EDGE_CURVE('',#321,#358,#155,.T.);
#444=EDGE_CURVE('',#353,#320,#156,.T.);
#445=EDGE_CURVE('',#351,#356,#157,.T.);
#446=EDGE_CURVE('',#317,#359,#158,.T.);
#447=EDGE_CURVE('',#360,#316,#159,.T.);
#448=EDGE_CURVE('',#360,#359,#160,.T.);
#449=EDGE_CURVE('',#358,#361,#161,.T.);
#450=EDGE_CURVE('',#322,#361,#162,.T.);
#451=EDGE_CURVE('',#362,#359,#163,.T.);
#452=EDGE_CURVE('',#318,#362,#164,.T.);
#453=EDGE_CURVE('',#314,#361,#165,.T.);
#454=EDGE_CURVE('',#334,#349,#166,.T.);
#455=EDGE_CURVE('',#347,#363,#167,.T.);
#456=EDGE_CURVE('',#363,#356,#168,.T.);
#457=EDGE_CURVE('',#335,#352,#169,.T.);
#458=EDGE_CURVE('',#354,#319,#170,.T.);
#459=EDGE_CURVE('',#364,#362,#171,.T.);
#460=EDGE_CURVE('',#365,#364,#172,.T.);
#461=EDGE_CURVE('',#363,#365,#173,.T.);
#462=EDGE_CURVE('',#365,#355,#174,.T.);
#463=EDGE_CURVE('',#357,#364,#175,.T.);
#464=EDGE_CURVE('',#366,#360,#176,.T.);
#465=EDGE_CURVE('',#315,#366,#177,.T.);
#466=EDGE_CURVE('',#367,#324,#178,.T.);
#467=EDGE_CURVE('',#367,#368,#179,.T.);
#468=EDGE_CURVE('',#336,#368,#180,.T.);
#469=EDGE_CURVE('',#369,#329,#181,.T.);
#470=EDGE_CURVE('',#370,#328,#182,.T.);
#471=EDGE_CURVE('',#369,#370,#183,.T.);
#472=EDGE_CURVE('',#371,#327,#184,.T.);
#473=EDGE_CURVE('',#371,#370,#185,.T.);
#474=EDGE_CURVE('',#371,#372,#186,.T.);
#475=EDGE_CURVE('',#372,#333,#187,.T.);
#476=EDGE_CURVE('',#330,#367,#188,.T.);
#477=EDGE_CURVE('',#368,#372,#189,.T.);
#478=EDGE_CURVE('',#373,#374,#190,.T.);
#479=EDGE_CURVE('',#309,#373,#191,.T.);
#480=EDGE_CURVE('',#374,#310,#192,.T.);
#481=EDGE_CURVE('',#373,#369,#193,.T.);
#482=EDGE_CURVE('',#366,#374,#194,.T.);
#483=ORIENTED_EDGE('',*,*,#375,.F.);
#484=ORIENTED_EDGE('',*,*,#376,.T.);
#485=ORIENTED_EDGE('',*,*,#377,.F.);
#486=ORIENTED_EDGE('',*,*,#378,.F.);
#487=ORIENTED_EDGE('',*,*,#375,.T.);
#488=ORIENTED_EDGE('',*,*,#379,.F.);
#489=ORIENTED_EDGE('',*,*,#380,.T.);
#490=ORIENTED_EDGE('',*,*,#381,.T.);
#491=ORIENTED_EDGE('',*,*,#382,.F.);
#492=ORIENTED_EDGE('',*,*,#383,.F.);
#493=ORIENTED_EDGE('',*,*,#384,.T.);
#494=ORIENTED_EDGE('',*,*,#385,.T.);
#495=ORIENTED_EDGE('',*,*,#379,.T.);
#496=ORIENTED_EDGE('',*,*,#378,.T.);
#497=ORIENTED_EDGE('',*,*,#386,.T.);
#498=ORIENTED_EDGE('',*,*,#387,.F.);
#499=ORIENTED_EDGE('',*,*,#388,.F.);
#500=ORIENTED_EDGE('',*,*,#389,.F.);
#501=ORIENTED_EDGE('',*,*,#377,.T.);
#502=ORIENTED_EDGE('',*,*,#390,.T.);
#503=ORIENTED_EDGE('',*,*,#391,.T.);
#504=ORIENTED_EDGE('',*,*,#392,.F.);
#505=ORIENTED_EDGE('',*,*,#393,.F.);
#506=ORIENTED_EDGE('',*,*,#394,.F.);
#507=ORIENTED_EDGE('',*,*,#395,.T.);
#508=ORIENTED_EDGE('',*,*,#396,.F.);
#509=ORIENTED_EDGE('',*,*,#397,.F.);
#510=ORIENTED_EDGE('',*,*,#386,.F.);
#511=ORIENTED_EDGE('',*,*,#398,.T.);
#512=ORIENTED_EDGE('',*,*,#399,.F.);
#513=ORIENTED_EDGE('',*,*,#400,.T.);
#514=ORIENTED_EDGE('',*,*,#401,.T.);
#515=ORIENTED_EDGE('',*,*,#402,.F.);
#516=ORIENTED_EDGE('',*,*,#403,.T.);
#517=ORIENTED_EDGE('',*,*,#404,.F.);
#518=ORIENTED_EDGE('',*,*,#405,.F.);
#519=ORIENTED_EDGE('',*,*,#380,.F.);
#520=ORIENTED_EDGE('',*,*,#385,.F.);
#521=ORIENTED_EDGE('',*,*,#406,.T.);
#522=ORIENTED_EDGE('',*,*,#407,.T.);
#523=ORIENTED_EDGE('',*,*,#398,.F.);
#524=ORIENTED_EDGE('',*,*,#384,.F.);
#525=ORIENTED_EDGE('',*,*,#401,.F.);
#526=ORIENTED_EDGE('',*,*,#408,.T.);
#527=ORIENTED_EDGE('',*,*,#409,.F.);
#528=ORIENTED_EDGE('',*,*,#410,.F.);
#529=ORIENTED_EDGE('',*,*,#411,.T.);
#530=ORIENTED_EDGE('',*,*,#412,.T.);
#531=ORIENTED_EDGE('',*,*,#413,.T.);
#532=ORIENTED_EDGE('',*,*,#414,.F.);
#533=ORIENTED_EDGE('',*,*,#409,.T.);
#534=ORIENTED_EDGE('',*,*,#415,.F.);
#535=ORIENTED_EDGE('',*,*,#416,.F.);
#536=ORIENTED_EDGE('',*,*,#417,.T.);
#537=ORIENTED_EDGE('',*,*,#416,.T.);
#538=ORIENTED_EDGE('',*,*,#418,.F.);
#539=ORIENTED_EDGE('',*,*,#419,.T.);
#540=ORIENTED_EDGE('',*,*,#420,.F.);
#541=ORIENTED_EDGE('',*,*,#421,.F.);
#542=ORIENTED_EDGE('',*,*,#422,.F.);
#543=ORIENTED_EDGE('',*,*,#423,.F.);
#544=ORIENTED_EDGE('',*,*,#424,.T.);
#545=ORIENTED_EDGE('',*,*,#425,.F.);
#546=ORIENTED_EDGE('',*,*,#426,.F.);
#547=ORIENTED_EDGE('',*,*,#427,.T.);
#548=ORIENTED_EDGE('',*,*,#428,.T.);
#549=ORIENTED_EDGE('',*,*,#429,.F.);
#550=ORIENTED_EDGE('',*,*,#424,.F.);
#551=ORIENTED_EDGE('',*,*,#430,.T.);
#552=ORIENTED_EDGE('',*,*,#425,.T.);
#553=ORIENTED_EDGE('',*,*,#429,.T.);
#554=ORIENTED_EDGE('',*,*,#431,.F.);
#555=ORIENTED_EDGE('',*,*,#420,.T.);
#556=ORIENTED_EDGE('',*,*,#432,.T.);
#557=ORIENTED_EDGE('',*,*,#433,.F.);
#558=ORIENTED_EDGE('',*,*,#434,.F.);
#559=ORIENTED_EDGE('',*,*,#435,.T.);
#560=ORIENTED_EDGE('',*,*,#432,.F.);
#561=ORIENTED_EDGE('',*,*,#419,.F.);
#562=ORIENTED_EDGE('',*,*,#436,.F.);
#563=ORIENTED_EDGE('',*,*,#422,.T.);
#564=ORIENTED_EDGE('',*,*,#437,.T.);
#565=ORIENTED_EDGE('',*,*,#438,.F.);
#566=ORIENTED_EDGE('',*,*,#439,.F.);
#567=ORIENTED_EDGE('',*,*,#440,.F.);
#568=ORIENTED_EDGE('',*,*,#441,.T.);
#569=ORIENTED_EDGE('',*,*,#442,.F.);
#570=ORIENTED_EDGE('',*,*,#443,.F.);
#571=ORIENTED_EDGE('',*,*,#395,.F.);
#572=ORIENTED_EDGE('',*,*,#444,.F.);
#573=ORIENTED_EDGE('',*,*,#437,.F.);
#574=ORIENTED_EDGE('',*,*,#421,.T.);
#575=ORIENTED_EDGE('',*,*,#434,.T.);
#576=ORIENTED_EDGE('',*,*,#445,.T.);
#577=ORIENTED_EDGE('',*,*,#446,.F.);
#578=ORIENTED_EDGE('',*,*,#391,.F.);
#579=ORIENTED_EDGE('',*,*,#447,.F.);
#580=ORIENTED_EDGE('',*,*,#448,.T.);
#581=ORIENTED_EDGE('',*,*,#396,.T.);
#582=ORIENTED_EDGE('',*,*,#443,.T.);
#583=ORIENTED_EDGE('',*,*,#449,.T.);
#584=ORIENTED_EDGE('',*,*,#450,.F.);
#585=ORIENTED_EDGE('',*,*,#446,.T.);
#586=ORIENTED_EDGE('',*,*,#451,.F.);
#587=ORIENTED_EDGE('',*,*,#452,.F.);
#588=ORIENTED_EDGE('',*,*,#392,.T.);
#589=ORIENTED_EDGE('',*,*,#397,.T.);
#590=ORIENTED_EDGE('',*,*,#450,.T.);
#591=ORIENTED_EDGE('',*,*,#453,.F.);
#592=ORIENTED_EDGE('',*,*,#387,.T.);
#593=ORIENTED_EDGE('',*,*,#454,.T.);
#594=ORIENTED_EDGE('',*,*,#431,.T.);
#595=ORIENTED_EDGE('',*,*,#428,.F.);
#596=ORIENTED_EDGE('',*,*,#455,.T.);
#597=ORIENTED_EDGE('',*,*,#456,.T.);
#598=ORIENTED_EDGE('',*,*,#445,.F.);
#599=ORIENTED_EDGE('',*,*,#433,.T.);
#600=ORIENTED_EDGE('',*,*,#435,.F.);
#601=ORIENTED_EDGE('',*,*,#457,.F.);
#602=ORIENTED_EDGE('',*,*,#412,.F.);
#603=ORIENTED_EDGE('',*,*,#439,.T.);
#604=ORIENTED_EDGE('',*,*,#458,.T.);
#605=ORIENTED_EDGE('',*,*,#393,.T.);
#606=ORIENTED_EDGE('',*,*,#452,.T.);
#607=ORIENTED_EDGE('',*,*,#459,.F.);
#608=ORIENTED_EDGE('',*,*,#460,.F.);
#609=ORIENTED_EDGE('',*,*,#461,.F.);
#610=ORIENTED_EDGE('',*,*,#455,.F.);
#611=ORIENTED_EDGE('',*,*,#427,.F.);
#612=ORIENTED_EDGE('',*,*,#423,.T.);
#613=ORIENTED_EDGE('',*,*,#438,.T.);
#614=ORIENTED_EDGE('',*,*,#444,.T.);
#615=ORIENTED_EDGE('',*,*,#394,.T.);
#616=ORIENTED_EDGE('',*,*,#458,.F.);
#617=ORIENTED_EDGE('',*,*,#461,.T.);
#618=ORIENTED_EDGE('',*,*,#462,.T.);
#619=ORIENTED_EDGE('',*,*,#440,.T.);
#620=ORIENTED_EDGE('',*,*,#456,.F.);
#621=ORIENTED_EDGE('',*,*,#388,.T.);
#622=ORIENTED_EDGE('',*,*,#453,.T.);
#623=ORIENTED_EDGE('',*,*,#449,.F.);
#624=ORIENTED_EDGE('',*,*,#442,.T.);
#625=ORIENTED_EDGE('',*,*,#463,.T.);
#626=ORIENTED_EDGE('',*,*,#459,.T.);
#627=ORIENTED_EDGE('',*,*,#451,.T.);
#628=ORIENTED_EDGE('',*,*,#448,.F.);
#629=ORIENTED_EDGE('',*,*,#464,.F.);
#630=ORIENTED_EDGE('',*,*,#465,.F.);
#631=ORIENTED_EDGE('',*,*,#460,.T.);
#632=ORIENTED_EDGE('',*,*,#463,.F.);
#633=ORIENTED_EDGE('',*,*,#441,.F.);
#634=ORIENTED_EDGE('',*,*,#462,.F.);
#635=ORIENTED_EDGE('',*,*,#400,.F.);
#636=ORIENTED_EDGE('',*,*,#466,.F.);
#637=ORIENTED_EDGE('',*,*,#467,.T.);
#638=ORIENTED_EDGE('',*,*,#468,.F.);
#639=ORIENTED_EDGE('',*,*,#413,.F.);
#640=ORIENTED_EDGE('',*,*,#457,.T.);
#641=ORIENTED_EDGE('',*,*,#436,.T.);
#642=ORIENTED_EDGE('',*,*,#418,.T.);
#643=ORIENTED_EDGE('',*,*,#415,.T.);
#644=ORIENTED_EDGE('',*,*,#408,.F.);
#645=ORIENTED_EDGE('',*,*,#469,.T.);
#646=ORIENTED_EDGE('',*,*,#404,.T.);
#647=ORIENTED_EDGE('',*,*,#470,.F.);
#648=ORIENTED_EDGE('',*,*,#471,.F.);
#649=ORIENTED_EDGE('',*,*,#470,.T.);
#650=ORIENTED_EDGE('',*,*,#403,.F.);
#651=ORIENTED_EDGE('',*,*,#472,.F.);
#652=ORIENTED_EDGE('',*,*,#473,.T.);
#653=ORIENTED_EDGE('',*,*,#474,.F.);
#654=ORIENTED_EDGE('',*,*,#472,.T.);
#655=ORIENTED_EDGE('',*,*,#402,.T.);
#656=ORIENTED_EDGE('',*,*,#410,.T.);
#657=ORIENTED_EDGE('',*,*,#417,.F.);
#658=ORIENTED_EDGE('',*,*,#426,.T.);
#659=ORIENTED_EDGE('',*,*,#430,.F.);
#660=ORIENTED_EDGE('',*,*,#454,.F.);
#661=ORIENTED_EDGE('',*,*,#411,.F.);
#662=ORIENTED_EDGE('',*,*,#475,.F.);
#663=ORIENTED_EDGE('',*,*,#476,.T.);
#664=ORIENTED_EDGE('',*,*,#466,.T.);
#665=ORIENTED_EDGE('',*,*,#399,.T.);
#666=ORIENTED_EDGE('',*,*,#407,.F.);
#667=ORIENTED_EDGE('',*,*,#475,.T.);
#668=ORIENTED_EDGE('',*,*,#414,.T.);
#669=ORIENTED_EDGE('',*,*,#468,.T.);
#670=ORIENTED_EDGE('',*,*,#477,.T.);
#671=ORIENTED_EDGE('',*,*,#478,.F.);
#672=ORIENTED_EDGE('',*,*,#479,.F.);
#673=ORIENTED_EDGE('',*,*,#382,.T.);
#674=ORIENTED_EDGE('',*,*,#480,.F.);
#675=ORIENTED_EDGE('',*,*,#383,.T.);
#676=ORIENTED_EDGE('',*,*,#479,.T.);
#677=ORIENTED_EDGE('',*,*,#481,.T.);
#678=ORIENTED_EDGE('',*,*,#471,.T.);
#679=ORIENTED_EDGE('',*,*,#473,.F.);
#680=ORIENTED_EDGE('',*,*,#474,.T.);
#681=ORIENTED_EDGE('',*,*,#477,.F.);
#682=ORIENTED_EDGE('',*,*,#467,.F.);
#683=ORIENTED_EDGE('',*,*,#476,.F.);
#684=ORIENTED_EDGE('',*,*,#406,.F.);
#685=ORIENTED_EDGE('',*,*,#389,.T.);
#686=ORIENTED_EDGE('',*,*,#465,.T.);
#687=ORIENTED_EDGE('',*,*,#482,.T.);
#688=ORIENTED_EDGE('',*,*,#480,.T.);
#689=ORIENTED_EDGE('',*,*,#381,.F.);
#690=ORIENTED_EDGE('',*,*,#405,.T.);
#691=ORIENTED_EDGE('',*,*,#469,.F.);
#692=ORIENTED_EDGE('',*,*,#481,.F.);
#693=ORIENTED_EDGE('',*,*,#478,.T.);
#694=ORIENTED_EDGE('',*,*,#482,.F.);
#695=ORIENTED_EDGE('',*,*,#464,.T.);
#696=ORIENTED_EDGE('',*,*,#447,.T.);
#697=ORIENTED_EDGE('',*,*,#390,.F.);
#698=ORIENTED_EDGE('',*,*,#376,.F.);
#699=PLANE('',#785);
#700=PLANE('',#786);
#701=PLANE('',#787);
#702=PLANE('',#788);
#703=PLANE('',#789);
#704=PLANE('',#790);
#705=PLANE('',#791);
#706=PLANE('',#792);
#707=PLANE('',#793);
#708=PLANE('',#794);
#709=PLANE('',#795);
#710=PLANE('',#796);
#711=PLANE('',#797);
#712=PLANE('',#798);
#713=PLANE('',#799);
#714=PLANE('',#800);
#715=PLANE('',#801);
#716=PLANE('',#802);
#717=PLANE('',#803);
#718=PLANE('',#804);
#719=PLANE('',#805);
#720=PLANE('',#806);
#721=PLANE('',#807);
#722=PLANE('',#808);
#723=PLANE('',#809);
#724=PLANE('',#810);
#725=PLANE('',#811);
#726=PLANE('',#812);
#727=PLANE('',#813);
#728=PLANE('',#814);
#729=PLANE('',#815);
#730=PLANE('',#816);
#731=PLANE('',#817);
#732=PLANE('',#818);
#733=PLANE('',#819);
#734=PLANE('',#820);
#735=ADVANCED_FACE('',(#15),#699,.F.);
#736=ADVANCED_FACE('',(#16),#700,.F.);
#737=ADVANCED_FACE('',(#17),#701,.F.);
#738=ADVANCED_FACE('',(#18),#702,.F.);
#739=ADVANCED_FACE('',(#19),#703,.F.);
#740=ADVANCED_FACE('',(#20),#704,.F.);
#741=ADVANCED_FACE('',(#21),#705,.F.);
#742=ADVANCED_FACE('',(#22),#706,.T.);
#743=ADVANCED_FACE('',(#23),#707,.F.);
#744=ADVANCED_FACE('',(#24),#708,.F.);
#745=ADVANCED_FACE('',(#25),#709,.F.);
#746=ADVANCED_FACE('',(#26),#710,.F.);
#747=ADVANCED_FACE('',(#27),#711,.F.);
#748=ADVANCED_FACE('',(#28),#712,.F.);
#749=ADVANCED_FACE('',(#29),#713,.F.);
#750=ADVANCED_FACE('',(#30),#714,.F.);
#751=ADVANCED_FACE('',(#31),#715,.F.);
#752=ADVANCED_FACE('',(#32),#716,.F.);
#753=ADVANCED_FACE('',(#33),#717,.F.);
#754=ADVANCED_FACE('',(#34),#718,.F.);
#755=ADVANCED_FACE('',(#35),#719,.T.);
#756=ADVANCED_FACE('',(#36),#720,.F.);
#757=ADVANCED_FACE('',(#37),#721,.F.);
#758=ADVANCED_FACE('',(#38),#722,.T.);
#759=ADVANCED_FACE('',(#39),#723,.F.);
#760=ADVANCED_FACE('',(#40),#724,.F.);
#761=ADVANCED_FACE('',(#41),#725,.F.);
#762=ADVANCED_FACE('',(#42),#726,.F.);
#763=ADVANCED_FACE('',(#43),#727,.F.);
#764=ADVANCED_FACE('',(#44),#728,.F.);
#765=ADVANCED_FACE('',(#45),#729,.T.);
#766=ADVANCED_FACE('',(#46),#730,.F.);
#767=ADVANCED_FACE('',(#47),#731,.F.);
#768=ADVANCED_FACE('',(#48),#732,.T.);
#769=ADVANCED_FACE('',(#49),#733,.F.);
#770=ADVANCED_FACE('',(#50),#734,.F.);
#771=CLOSED_SHELL('',(#735,#736,#737,#738,#739,#740,#741,#742,#743,#744,
#745,#746,#747,#748,#749,#750,#751,#752,#753,#754,#755,#756,#757,#758,#759,
#760,#761,#762,#763,#764,#765,#766,#767,#768,#769,#770));
#772=DERIVED_UNIT_ELEMENT(#774,1.);
#773=DERIVED_UNIT_ELEMENT(#1225,-3.);
#774=(
MASS_UNIT()
NAMED_UNIT(*)
SI_UNIT(.KILO.,.GRAM.)
);
#775=DERIVED_UNIT((#772,#773));
#776=MEASURE_REPRESENTATION_ITEM('density measure',
POSITIVE_RATIO_MEASURE(7850.),#775);
#777=PROPERTY_DEFINITION_REPRESENTATION(#782,#779);
#778=PROPERTY_DEFINITION_REPRESENTATION(#783,#780);
#779=REPRESENTATION('material name',(#781),#1222);
#780=REPRESENTATION('density',(#776),#1222);
#781=DESCRIPTIVE_REPRESENTATION_ITEM('Steel','Steel');
#782=PROPERTY_DEFINITION('material property','material name',#1232);
#783=PROPERTY_DEFINITION('material property','density of part',#1232);
#784=AXIS2_PLACEMENT_3D('',#1003,#821,#822);
#785=AXIS2_PLACEMENT_3D('',#1004,#823,#824);
#786=AXIS2_PLACEMENT_3D('',#1013,#829,#830);
#787=AXIS2_PLACEMENT_3D('',#1019,#834,#835);
#788=AXIS2_PLACEMENT_3D('',#1035,#844,#845);
#789=AXIS2_PLACEMENT_3D('',#1051,#854,#855);
#790=AXIS2_PLACEMENT_3D('',#1067,#864,#865);
#791=AXIS2_PLACEMENT_3D('',#1071,#868,#869);
#792=AXIS2_PLACEMENT_3D('',#1077,#873,#874);
#793=AXIS2_PLACEMENT_3D('',#1086,#879,#880);
#794=AXIS2_PLACEMENT_3D('',#1092,#884,#885);
#795=AXIS2_PLACEMENT_3D('',#1110,#895,#896);
#796=AXIS2_PLACEMENT_3D('',#1116,#900,#901);
#797=AXIS2_PLACEMENT_3D('',#1120,#904,#905);
#798=AXIS2_PLACEMENT_3D('',#1126,#909,#910);
#799=AXIS2_PLACEMENT_3D('',#1130,#913,#914);
#800=AXIS2_PLACEMENT_3D('',#1136,#918,#919);
#801=AXIS2_PLACEMENT_3D('',#1147,#926,#927);
#802=AXIS2_PLACEMENT_3D('',#1153,#931,#932);
#803=AXIS2_PLACEMENT_3D('',#1157,#935,#936);
#804=AXIS2_PLACEMENT_3D('',#1161,#939,#940);
#805=AXIS2_PLACEMENT_3D('',#1163,#942,#943);
#806=AXIS2_PLACEMENT_3D('',#1169,#948,#949);
#807=AXIS2_PLACEMENT_3D('',#1176,#954,#955);
#808=AXIS2_PLACEMENT_3D('',#1177,#956,#957);
#809=AXIS2_PLACEMENT_3D('',#1179,#959,#960);
#810=AXIS2_PLACEMENT_3D('',#1184,#964,#965);
#811=AXIS2_PLACEMENT_3D('',#1185,#966,#967);
#812=AXIS2_PLACEMENT_3D('',#1191,#971,#972);
#813=AXIS2_PLACEMENT_3D('',#1197,#976,#977);
#814=AXIS2_PLACEMENT_3D('',#1201,#980,#981);
#815=AXIS2_PLACEMENT_3D('',#1205,#984,#985);
#816=AXIS2_PLACEMENT_3D('',#1207,#987,#988);
#817=AXIS2_PLACEMENT_3D('',#1209,#990,#991);
#818=AXIS2_PLACEMENT_3D('',#1215,#995,#996);
#819=AXIS2_PLACEMENT_3D('',#1217,#998,#999);
#820=AXIS2_PLACEMENT_3D('',#1219,#1001,#1002);
#821=DIRECTION('axis',(0.,0.,1.));
#822=DIRECTION('refdir',(1.,0.,0.));
#823=DIRECTION('center_axis',(1.,0.,0.));
#824=DIRECTION('ref_axis',(0.,0.,1.));
#825=DIRECTION('',(0.,-1.,0.));
#826=DIRECTION('',(0.,0.,-1.));
#827=DIRECTION('',(0.,1.,2.22044604925031E-16));
#828=DIRECTION('',(0.,0.,-1.));
#829=DIRECTION('center_axis',(-2.22044604925031E-16,0.,1.));
#830=DIRECTION('ref_axis',(-1.,0.,-2.22044604925031E-16));
#831=DIRECTION('',(1.,0.,2.22044604925031E-16));
#832=DIRECTION('',(0.,1.,0.));
#833=DIRECTION('',(1.,0.,2.22044604925031E-16));
#834=DIRECTION('center_axis',(0.,1.,0.));
#835=DIRECTION('ref_axis',(-1.,0.,-2.22044604925031E-16));
#836=DIRECTION('',(1.,0.,2.22044604925031E-16));
#837=DIRECTION('',(-2.22044604925031E-16,0.,1.));
#838=DIRECTION('',(1.,0.,0.));
#839=DIRECTION('',(0.,-2.22044604925031E-16,1.));
#840=DIRECTION('',(-1.,0.,2.22044604925031E-16));
#841=DIRECTION('',(2.22044604925031E-16,0.,1.));
#842=DIRECTION('',(-1.,0.,2.22044604925031E-16));
#843=DIRECTION('',(2.22044604925031E-16,0.,-1.));
#844=DIRECTION('center_axis',(9.86076131526264E-32,2.22044604925031E-16,
-1.));
#845=DIRECTION('ref_axis',(4.44089209850063E-16,1.,2.22044604925031E-16));
#846=DIRECTION('',(-1.,0.,2.22044604925031E-16));
#847=DIRECTION('',(2.22044604925031E-16,1.,2.22044604925031E-16));
#848=DIRECTION('',(-1.,0.,2.22044604925031E-16));
#849=DIRECTION('',(4.44089209850063E-16,1.,2.22044604925031E-16));
#850=DIRECTION('',(-1.,0.,-9.86076131526264E-32));
#851=DIRECTION('',(4.44089209850063E-16,1.,2.22044604925031E-16));
#852=DIRECTION('',(1.,-4.44089209850063E-16,0.));
#853=DIRECTION('',(2.22044604925031E-16,1.,2.22044604925031E-16));
#854=DIRECTION('center_axis',(-1.,0.,0.));
#855=DIRECTION('ref_axis',(0.,1.,-2.22044604925031E-16));
#856=DIRECTION('',(0.,1.,2.22044604925031E-16));
#857=DIRECTION('',(0.,0.,-1.));
#858=DIRECTION('',(0.,-1.,2.22044604925031E-16));
#859=DIRECTION('',(0.,0.,-1.));
#860=DIRECTION('',(0.,-1.,2.22044604925031E-16));
#861=DIRECTION('',(0.,0.,-1.));
#862=DIRECTION('',(0.,1.,2.22044604925031E-16));
#863=DIRECTION('',(0.,0.,-1.));
#864=DIRECTION('center_axis',(0.,0.,1.));
#865=DIRECTION('ref_axis',(0.,-1.,0.));
#866=DIRECTION('',(0.,1.,2.22044604925031E-16));
#867=DIRECTION('',(1.,0.,0.));
#868=DIRECTION('center_axis',(-2.22044604925031E-16,-1.,0.));
#869=DIRECTION('ref_axis',(-1.,2.22044604925031E-16,-2.22044604925031E-16));
#870=DIRECTION('',(1.,-2.22044604925031E-16,2.22044604925031E-16));
#871=DIRECTION('',(0.,0.,1.));
#872=DIRECTION('',(1.,-2.22044604925031E-16,2.22044604925031E-16));
#873=DIRECTION('center_axis',(1.,-2.22044604925031E-16,-2.22044604925031E-16));
#874=DIRECTION('ref_axis',(-2.22044604925031E-16,4.93038065763132E-32,-1.));
#875=DIRECTION('',(2.22044604925031E-16,1.,0.));
#876=DIRECTION('',(2.22044604925031E-16,-4.93038065763132E-32,1.));
#877=DIRECTION('',(-2.22044604925031E-16,-1.,0.));
#878=DIRECTION('',(9.86076131526264E-32,2.22044604925031E-16,1.));
#879=DIRECTION('center_axis',(1.,-4.44089209850063E-16,0.));
#880=DIRECTION('ref_axis',(-4.44089209850063E-16,-1.,2.22044604925031E-16));
#881=DIRECTION('',(-4.44089209850063E-16,-1.,2.22044604925031E-16));
#882=DIRECTION('',(0.,0.,1.));
#883=DIRECTION('',(-4.44089209850063E-16,-1.,2.22044604925031E-16));
#884=DIRECTION('center_axis',(0.,1.,0.));
#885=DIRECTION('ref_axis',(0.,0.,1.));
#886=DIRECTION('',(1.,0.,0.));
#887=DIRECTION('',(0.,0.,-1.));
#888=DIRECTION('',(-1.,0.,0.));
#889=DIRECTION('',(-2.22044604925031E-16,0.,-1.));
#890=DIRECTION('',(1.,4.93038065763132E-32,-9.86076131526264E-32));
#891=DIRECTION('',(4.44089209850063E-16,2.22044604925031E-16,1.));
#892=DIRECTION('',(-1.,0.,2.22044604925031E-16));
#893=DIRECTION('',(0.,0.,-1.));
#894=DIRECTION('',(-1.,2.22044604925031E-16,2.22044604925031E-16));
#895=DIRECTION('center_axis',(-2.22044604925031E-16,0.,-1.));
#896=DIRECTION('ref_axis',(1.,0.,-2.22044604925031E-16));
#897=DIRECTION('',(4.93038065763132E-32,1.,-1.09476442525376E-47));
#898=DIRECTION('',(-1.,0.,2.22044604925031E-16));
#899=DIRECTION('',(0.,1.,0.));
#900=DIRECTION('center_axis',(-1.,0.,0.));
#901=DIRECTION('ref_axis',(0.,0.,-1.));
#902=DIRECTION('',(0.,-1.,-4.93038065763132E-32));
#903=DIRECTION('',(0.,0.,-1.));
#904=DIRECTION('center_axis',(0.,0.,1.));
#905=DIRECTION('ref_axis',(0.,-1.,0.));
#906=DIRECTION('',(0.,1.,0.));
#907=DIRECTION('',(-1.,0.,2.22044604925031E-16));
#908=DIRECTION('',(0.,1.,0.));
#909=DIRECTION('center_axis',(1.,0.,0.));
#910=DIRECTION('ref_axis',(0.,0.,1.));
#911=DIRECTION('',(0.,0.,-1.));
#912=DIRECTION('',(0.,-1.,0.));
#913=DIRECTION('center_axis',(9.86076131526264E-32,2.22044604925031E-16,
1.));
#914=DIRECTION('ref_axis',(4.44089209850063E-16,1.,-2.22044604925031E-16));
#915=DIRECTION('',(-4.44089209850063E-16,-1.,2.22044604925031E-16));
#916=DIRECTION('',(1.,0.,-9.86076131526264E-32));
#917=DIRECTION('',(-4.44089209850063E-16,-1.,2.22044604925031E-16));
#918=DIRECTION('center_axis',(-1.,0.,0.));
#919=DIRECTION('ref_axis',(0.,0.,-1.));
#920=DIRECTION('',(0.,1.,0.));
#921=DIRECTION('',(0.,0.,-1.));
#922=DIRECTION('',(0.,-1.,0.));
#923=DIRECTION('',(9.86076131526264E-32,2.22044604925031E-16,-1.));
#924=DIRECTION('',(0.,0.,-1.));
#925=DIRECTION('',(2.22044604925031E-16,0.,1.));
#926=DIRECTION('center_axis',(-1.,2.22044604925031E-16,0.));
#927=DIRECTION('ref_axis',(2.22044604925031E-16,1.,2.22044604925031E-16));
#928=DIRECTION('',(0.,0.,-1.));
#929=DIRECTION('',(0.,0.,1.));
#930=DIRECTION('',(2.22044604925031E-16,1.,2.22044604925031E-16));
#931=DIRECTION('center_axis',(-4.44089209850063E-16,-1.,-2.22044604925031E-16));
#932=DIRECTION('ref_axis',(9.86076131526264E-32,2.22044604925031E-16,-1.));
#933=DIRECTION('',(-1.,4.44089209850063E-16,0.));
#934=DIRECTION('',(-2.22044604925031E-16,0.,-1.));
#935=DIRECTION('center_axis',(0.,1.,0.));
#936=DIRECTION('ref_axis',(1.,0.,-2.22044604925031E-16));
#937=DIRECTION('',(-1.,0.,2.22044604925031E-16));
#938=DIRECTION('',(0.,0.,-1.));
#939=DIRECTION('center_axis',(1.,0.,-2.22044604925031E-16));
#940=DIRECTION('ref_axis',(0.,-1.,0.));
#941=DIRECTION('',(2.22044604925031E-16,1.,2.22044604925031E-16));
#942=DIRECTION('center_axis',(4.44089209850063E-16,1.,-2.22044604925031E-16));
#943=DIRECTION('ref_axis',(-9.86076131526264E-32,-2.22044604925031E-16,
-1.));
#944=DIRECTION('',(-1.,2.22044604925031E-16,2.22044604925031E-16));
#945=DIRECTION('',(9.86076131526264E-32,2.22044604925031E-16,1.));
#946=DIRECTION('',(1.,-4.44089209850063E-16,0.));
#947=DIRECTION('',(-1.,0.,0.));
#948=DIRECTION('center_axis',(1.,0.,0.));
#949=DIRECTION('ref_axis',(0.,0.,1.));
#950=DIRECTION('',(0.,0.,-1.));
#951=DIRECTION('',(4.44089209850063E-16,1.,2.22044604925031E-16));
#952=DIRECTION('',(0.,0.,-1.));
#953=DIRECTION('',(0.,-1.,0.));
#954=DIRECTION('center_axis',(0.,-1.,0.));
#955=DIRECTION('ref_axis',(0.,0.,-1.));
#956=DIRECTION('center_axis',(0.,0.,1.));
#957=DIRECTION('ref_axis',(0.,-1.,0.));
#958=DIRECTION('',(1.,0.,0.));
#959=DIRECTION('center_axis',(0.,0.,1.));
#960=DIRECTION('ref_axis',(0.,-1.,0.));
#961=DIRECTION('',(-1.,0.,0.));
#962=DIRECTION('',(-1.,0.,2.22044604925031E-16));
#963=DIRECTION('',(0.,1.,0.));
#964=DIRECTION('center_axis',(0.,1.,0.));
#965=DIRECTION('ref_axis',(0.,0.,1.));
#966=DIRECTION('center_axis',(0.,-2.22044604925031E-16,-1.));
#967=DIRECTION('ref_axis',(0.,-1.,2.22044604925031E-16));
#968=DIRECTION('',(1.,0.,0.));
#969=DIRECTION('',(0.,-1.,2.22044604925031E-16));
#970=DIRECTION('',(-1.,0.,0.));
#971=DIRECTION('center_axis',(0.,2.22044604925031E-16,-1.));
#972=DIRECTION('ref_axis',(0.,1.,2.22044604925031E-16));
#973=DIRECTION('',(1.,0.,0.));
#974=DIRECTION('',(1.,0.,0.));
#975=DIRECTION('',(0.,1.,2.22044604925031E-16));
#976=DIRECTION('center_axis',(0.,1.,0.));
#977=DIRECTION('ref_axis',(0.,0.,1.));
#978=DIRECTION('',(1.,0.,0.));
#979=DIRECTION('',(0.,0.,-1.));
#980=DIRECTION('center_axis',(0.,2.22044604925031E-16,1.));
#981=DIRECTION('ref_axis',(0.,1.,-2.22044604925031E-16));
#982=DIRECTION('',(0.,-1.,2.22044604925031E-16));
#983=DIRECTION('',(1.,0.,0.));
#984=DIRECTION('center_axis',(0.,1.,-2.22044604925031E-16));
#985=DIRECTION('ref_axis',(0.,-2.22044604925031E-16,-1.));
#986=DIRECTION('',(0.,2.22044604925031E-16,1.));
#987=DIRECTION('center_axis',(0.,1.,-2.22044604925031E-16));
#988=DIRECTION('ref_axis',(0.,-2.22044604925031E-16,-1.));
#989=DIRECTION('',(0.,-2.22044604925031E-16,-1.));
#990=DIRECTION('center_axis',(2.22044604925031E-16,0.,-1.));
#991=DIRECTION('ref_axis',(1.,0.,2.22044604925031E-16));
#992=DIRECTION('',(1.,0.,2.22044604925031E-16));
#993=DIRECTION('',(0.,1.,0.));
#994=DIRECTION('',(0.,-1.,0.));
#995=DIRECTION('center_axis',(-1.,0.,-2.22044604925031E-16));
#996=DIRECTION('ref_axis',(0.,-1.,0.));
#997=DIRECTION('',(2.22044604925031E-16,0.,-1.));
#998=DIRECTION('center_axis',(-1.,0.,-2.22044604925031E-16));
#999=DIRECTION('ref_axis',(0.,-1.,0.));
#1000=DIRECTION('',(-2.22044604925031E-16,0.,1.));
#1001=DIRECTION('center_axis',(0.,-1.,0.));
#1002=DIRECTION('ref_axis',(1.,0.,2.22044604925031E-16));
#1003=CARTESIAN_POINT('',(0.,0.,0.));
#1004=CARTESIAN_POINT('Origin',(10.,-26.25,28.75));
#1005=CARTESIAN_POINT('',(10.,-22.5,50.));
#1006=CARTESIAN_POINT('',(10.,-30.,50.0000000000001));
#1007=CARTESIAN_POINT('',(10.,-26.25,50.));
#1008=CARTESIAN_POINT('',(10.,-22.5,7.50000000000002));
#1009=CARTESIAN_POINT('',(10.,-22.5,28.75));
#1010=CARTESIAN_POINT('',(10.,-30.,7.50000000000002));
#1011=CARTESIAN_POINT('',(10.,-10.625,7.50000000000002));
#1012=CARTESIAN_POINT('',(10.,-30.,28.75));
#1013=CARTESIAN_POINT('Origin',(-11.25,-26.25,50.));
#1014=CARTESIAN_POINT('',(-32.5,-30.,50.));
#1015=CARTESIAN_POINT('',(-11.25,-30.,50.));
#1016=CARTESIAN_POINT('',(-32.5,-22.5,50.));
#1017=CARTESIAN_POINT('',(-32.5,-26.25,50.));
#1018=CARTESIAN_POINT('',(-11.25,-22.5,50.));
#1019=CARTESIAN_POINT('Origin',(-11.25,-30.,53.75));
#1020=CARTESIAN_POINT('',(-40.,-30.,57.5));
#1021=CARTESIAN_POINT('',(17.5,-30.,57.5000000000001));
#1022=CARTESIAN_POINT('',(-11.25,-30.,57.5));
#1023=CARTESIAN_POINT('',(-40.,-30.,12.5));
#1024=CARTESIAN_POINT('',(-40.,-30.,53.75));
#1025=CARTESIAN_POINT('',(-32.5,-30.,12.5));
#1026=CARTESIAN_POINT('',(-36.25,-30.,12.5));
#1027=CARTESIAN_POINT('',(-32.5,-30.,16.25));
#1028=CARTESIAN_POINT('',(-27.5,-30.,7.50000000000002));
#1029=CARTESIAN_POINT('',(-5.,-30.,7.50000000000002));
#1030=CARTESIAN_POINT('',(-27.5,-30.,2.66453525910038E-14));
#1031=CARTESIAN_POINT('',(-27.5,-30.,3.75000000000002));
#1032=CARTESIAN_POINT('',(17.5,-30.,1.77635683940025E-14));
#1033=CARTESIAN_POINT('',(-5.,-30.,1.77635683940025E-14));
#1034=CARTESIAN_POINT('',(17.5,-30.,53.7500000000001));
#1035=CARTESIAN_POINT('Origin',(26.25,5.,7.50000000000003));
#1036=CARTESIAN_POINT('',(-20.,-22.5,7.50000000000002));
#1037=CARTESIAN_POINT('',(-5.,-22.5,7.50000000000002));
#1038=CARTESIAN_POINT('',(-20.,20.,7.50000000000002));
#1039=CARTESIAN_POINT('',(-20.,-1.25,7.50000000000002));
#1040=CARTESIAN_POINT('',(22.5,20.,7.50000000000002));
#1041=CARTESIAN_POINT('',(1.24999999999998,20.,7.50000000000002));
#1042=CARTESIAN_POINT('',(22.5,-10.,7.50000000000003));
#1043=CARTESIAN_POINT('',(22.5,5.00000000000001,7.50000000000003));
#1044=CARTESIAN_POINT('',(30.,-10.,7.50000000000003));
#1045=CARTESIAN_POINT('',(26.25,-10.,7.50000000000002));
#1046=CARTESIAN_POINT('',(30.,27.5,7.50000000000004));
#1047=CARTESIAN_POINT('',(30.,5.00000000000001,7.50000000000003));
#1048=CARTESIAN_POINT('',(-27.5,27.5,7.50000000000003));
#1049=CARTESIAN_POINT('',(26.25,27.5,7.50000000000004));
#1050=CARTESIAN_POINT('',(-27.5,-1.24999999999999,7.50000000000002));
#1051=CARTESIAN_POINT('Origin',(-32.5,5.,66.25));
#1052=CARTESIAN_POINT('',(-32.5,27.5,12.5));
#1053=CARTESIAN_POINT('',(-32.5,-1.25000000000001,12.5));
#1054=CARTESIAN_POINT('',(-32.5,27.5,70.));
#1055=CARTESIAN_POINT('',(-32.5,27.5,41.25));
#1056=CARTESIAN_POINT('',(-32.5,-10.,70.));
#1057=CARTESIAN_POINT('',(-32.5,5.,70.));
#1058=CARTESIAN_POINT('',(-32.5,-10.,62.5));
#1059=CARTESIAN_POINT('',(-32.5,-10.,66.25));
#1060=CARTESIAN_POINT('',(-32.5,20.,62.5));
#1061=CARTESIAN_POINT('',(-32.5,5.,62.5));
#1062=CARTESIAN_POINT('',(-32.5,20.,20.));
#1063=CARTESIAN_POINT('',(-32.5,20.,41.25));
#1064=CARTESIAN_POINT('',(-32.5,-22.5,20.));
#1065=CARTESIAN_POINT('',(-32.5,-1.25000000000001,20.));
#1066=CARTESIAN_POINT('',(-32.5,-22.5,35.));
#1067=CARTESIAN_POINT('Origin',(-36.25,23.75,12.5));
#1068=CARTESIAN_POINT('',(-40.,27.5,12.5));
#1069=CARTESIAN_POINT('',(-40.,-1.25000000000001,12.5));
#1070=CARTESIAN_POINT('',(-36.25,27.5,12.5));
#1071=CARTESIAN_POINT('Origin',(-11.25,-10.,66.25));
#1072=CARTESIAN_POINT('',(10.,-10.,70.));
#1073=CARTESIAN_POINT('',(-11.25,-10.,70.));
#1074=CARTESIAN_POINT('',(10.,-10.,62.5));
#1075=CARTESIAN_POINT('',(10.,-10.,66.25));
#1076=CARTESIAN_POINT('',(-11.25,-10.,62.5));
#1077=CARTESIAN_POINT('Origin',(17.5,36.25,66.25));
#1078=CARTESIAN_POINT('',(17.5,-17.5000000000001,62.5));
#1079=CARTESIAN_POINT('',(17.5,40.,62.5));
#1080=CARTESIAN_POINT('',(17.5,36.25,62.5));
#1081=CARTESIAN_POINT('',(17.5,40.,70.));
#1082=CARTESIAN_POINT('',(17.5,40.,66.25));
#1083=CARTESIAN_POINT('',(17.5,-17.5000000000001,70.));
#1084=CARTESIAN_POINT('',(17.5,36.25,70.));
#1085=CARTESIAN_POINT('',(17.5,-17.5000000000001,66.25));
#1086=CARTESIAN_POINT('Origin',(10.,11.25,66.25));
#1087=CARTESIAN_POINT('',(10.,32.5,70.));
#1088=CARTESIAN_POINT('',(10.,11.25,70.));
#1089=CARTESIAN_POINT('',(10.,32.5,62.5));
#1090=CARTESIAN_POINT('',(10.,32.5,53.75));
#1091=CARTESIAN_POINT('',(10.,11.25,62.5));
#1092=CARTESIAN_POINT('Origin',(-23.75,32.5,41.25));
#1093=CARTESIAN_POINT('',(-27.5,32.5,70.));
#1094=CARTESIAN_POINT('',(-23.75,32.5,70.));
#1095=CARTESIAN_POINT('',(-27.5,32.5,12.5));
#1096=CARTESIAN_POINT('',(-27.5,32.5,41.25));
#1097=CARTESIAN_POINT('',(30.,32.5,12.5));
#1098=CARTESIAN_POINT('',(-23.75,32.5,12.5));
#1099=CARTESIAN_POINT('',(30.,32.5,50.));
#1100=CARTESIAN_POINT('',(30.,32.5,16.25));
#1101=CARTESIAN_POINT('',(22.5,32.5,50.));
#1102=CARTESIAN_POINT('',(26.25,32.5,50.));
#1103=CARTESIAN_POINT('',(22.5,32.5,20.));
#1104=CARTESIAN_POINT('',(22.5,32.5,35.));
#1105=CARTESIAN_POINT('',(-20.,32.5,20.));
#1106=CARTESIAN_POINT('',(1.24999999999998,32.5,20.));
#1107=CARTESIAN_POINT('',(-20.,32.5,62.5));
#1108=CARTESIAN_POINT('',(-20.,32.5,41.25));
#1109=CARTESIAN_POINT('',(-5.00000000000002,32.5,62.5));
#1110=CARTESIAN_POINT('Origin',(1.24999999999998,36.25,20.));
#1111=CARTESIAN_POINT('',(22.5,40.,20.));
#1112=CARTESIAN_POINT('',(22.5,36.25,20.));
#1113=CARTESIAN_POINT('',(-20.,40.,20.));
#1114=CARTESIAN_POINT('',(1.24999999999998,40.,20.));
#1115=CARTESIAN_POINT('',(-20.,36.25,20.));
#1116=CARTESIAN_POINT('Origin',(-20.,36.25,41.25));
#1117=CARTESIAN_POINT('',(-20.,40.,62.5));
#1118=CARTESIAN_POINT('',(-20.,36.25,62.5));
#1119=CARTESIAN_POINT('',(-20.,40.,41.25));
#1120=CARTESIAN_POINT('Origin',(-23.75,36.25,12.5));
#1121=CARTESIAN_POINT('',(-27.5,40.,12.5));
#1122=CARTESIAN_POINT('',(-27.5,36.25,12.5));
#1123=CARTESIAN_POINT('',(30.,40.,12.5));
#1124=CARTESIAN_POINT('',(1.24999999999998,40.,12.5));
#1125=CARTESIAN_POINT('',(30.,36.25,12.5));
#1126=CARTESIAN_POINT('Origin',(-27.5,36.25,41.25));
#1127=CARTESIAN_POINT('',(-27.5,40.,70.));
#1128=CARTESIAN_POINT('',(-27.5,40.,41.25));
#1129=CARTESIAN_POINT('',(-27.5,36.25,70.));
#1130=CARTESIAN_POINT('Origin',(26.25,11.25,50.));
#1131=CARTESIAN_POINT('',(30.,-10.,50.));
#1132=CARTESIAN_POINT('',(30.,11.25,50.));
#1133=CARTESIAN_POINT('',(22.5,-10.,50.));
#1134=CARTESIAN_POINT('',(26.25,-10.,50.));
#1135=CARTESIAN_POINT('',(22.5,11.25,50.));
#1136=CARTESIAN_POINT('Origin',(30.,-13.75,28.75));
#1137=CARTESIAN_POINT('',(30.,-17.5,57.5));
#1138=CARTESIAN_POINT('',(30.,40.,57.5));
#1139=CARTESIAN_POINT('',(30.,-13.75,57.5));
#1140=CARTESIAN_POINT('',(30.,-17.5,2.66453525910038E-14));
#1141=CARTESIAN_POINT('',(30.,-17.5,28.75));
#1142=CARTESIAN_POINT('',(30.,27.5,3.5527136788005E-14));
#1143=CARTESIAN_POINT('',(30.,-13.75,2.66453525910038E-14));
#1144=CARTESIAN_POINT('',(30.,27.5,3.75000000000004));
#1145=CARTESIAN_POINT('',(30.,-10.,28.75));
#1146=CARTESIAN_POINT('',(30.,40.,16.25));
#1147=CARTESIAN_POINT('Origin',(-20.,-1.25,3.75000000000002));
#1148=CARTESIAN_POINT('',(-20.,20.,2.66453525910038E-14));
#1149=CARTESIAN_POINT('',(-20.,20.,3.75000000000002));
#1150=CARTESIAN_POINT('',(-20.,-22.5,2.66453525910038E-14));
#1151=CARTESIAN_POINT('',(-20.,-22.5,3.75000000000002));
#1152=CARTESIAN_POINT('',(-20.,-1.25,1.77635683940025E-14));
#1153=CARTESIAN_POINT('Origin',(26.25,27.5,3.75000000000004));
#1154=CARTESIAN_POINT('',(-27.5,27.5,2.66453525910038E-14));
#1155=CARTESIAN_POINT('',(26.25,27.5,3.5527136788005E-14));
#1156=CARTESIAN_POINT('',(-27.5,27.5,3.75000000000003));
#1157=CARTESIAN_POINT('Origin',(1.24999999999998,20.,3.75000000000002));
#1158=CARTESIAN_POINT('',(22.5,20.,8.88178419700125E-15));
#1159=CARTESIAN_POINT('',(1.24999999999998,20.,1.77635683940025E-14));
#1160=CARTESIAN_POINT('',(22.5,20.,16.25));
#1161=CARTESIAN_POINT('Origin',(-27.5,23.75,3.75000000000003));
#1162=CARTESIAN_POINT('',(-27.5,-1.24999999999999,1.77635683940025E-14));
#1163=CARTESIAN_POINT('Origin',(26.25,40.,53.75));
#1164=CARTESIAN_POINT('',(-5.00000000000002,40.,62.5));
#1165=CARTESIAN_POINT('',(22.5,40.,57.5));
#1166=CARTESIAN_POINT('',(22.5,40.,53.75));
#1167=CARTESIAN_POINT('',(26.25,40.,57.5));
#1168=CARTESIAN_POINT('',(-23.75,40.,70.));
#1169=CARTESIAN_POINT('Origin',(22.5,-13.75,28.75));
#1170=CARTESIAN_POINT('',(22.5,-10.,28.75));
#1171=CARTESIAN_POINT('',(22.5,-17.5,2.66453525910038E-14));
#1172=CARTESIAN_POINT('',(22.5,5.00000000000001,3.5527136788005E-14));
#1173=CARTESIAN_POINT('',(22.5,-17.5,57.5));
#1174=CARTESIAN_POINT('',(22.5,-17.5,28.75));
#1175=CARTESIAN_POINT('',(22.5,-13.75,57.5));
#1176=CARTESIAN_POINT('Origin',(26.25,-10.,28.75));
#1177=CARTESIAN_POINT('Origin',(26.25,-13.75,57.5));
#1178=CARTESIAN_POINT('',(26.25,-17.5,57.5));
#1179=CARTESIAN_POINT('Origin',(26.25,-13.75,2.66453525910038E-14));
#1180=CARTESIAN_POINT('',(26.25,-17.5,2.66453525910038E-14));
#1181=CARTESIAN_POINT('',(17.5,-22.5,1.77635683940025E-14));
#1182=CARTESIAN_POINT('',(-5.,-22.5,1.77635683940025E-14));
#1183=CARTESIAN_POINT('',(17.5,-26.25,1.77635683940025E-14));
#1184=CARTESIAN_POINT('Origin',(26.25,-17.5,28.75));
#1185=CARTESIAN_POINT('Origin',(-36.25,5.,70.));
#1186=CARTESIAN_POINT('',(-40.,27.5,70.));
#1187=CARTESIAN_POINT('',(-36.25,27.5,70.));
#1188=CARTESIAN_POINT('',(-40.,-17.5,70.));
#1189=CARTESIAN_POINT('',(-40.,5.,70.));
#1190=CARTESIAN_POINT('',(-36.25,-17.5,70.));
#1191=CARTESIAN_POINT('Origin',(-36.25,-1.25000000000001,20.));
#1192=CARTESIAN_POINT('',(-40.,-22.5,20.));
#1193=CARTESIAN_POINT('',(-36.25,-22.5,20.));
#1194=CARTESIAN_POINT('',(-40.,20.,20.));
#1195=CARTESIAN_POINT('',(-36.25,20.,20.));
#1196=CARTESIAN_POINT('',(-40.,-1.25000000000001,20.));
#1197=CARTESIAN_POINT('Origin',(-36.25,20.,41.25));
#1198=CARTESIAN_POINT('',(-40.,20.,62.5));
#1199=CARTESIAN_POINT('',(-36.25,20.,62.5));
#1200=CARTESIAN_POINT('',(-40.,20.,41.25));
#1201=CARTESIAN_POINT('Origin',(-36.25,5.,62.5));
#1202=CARTESIAN_POINT('',(-40.,-17.5,62.5));
#1203=CARTESIAN_POINT('',(-40.,5.,62.5));
#1204=CARTESIAN_POINT('',(-36.25,-17.5,62.5));
#1205=CARTESIAN_POINT('Origin',(-36.25,27.5,66.25));
#1206=CARTESIAN_POINT('',(-40.,27.5,66.25));
#1207=CARTESIAN_POINT('Origin',(-36.25,-17.5,66.25));
#1208=CARTESIAN_POINT('',(-40.,-17.5,66.25));
#1209=CARTESIAN_POINT('Origin',(-11.25,-26.25,57.5));
#1210=CARTESIAN_POINT('',(-40.,-22.5,57.5));
#1211=CARTESIAN_POINT('',(17.5,-22.5,57.5000000000001));
#1212=CARTESIAN_POINT('',(-11.25,-22.5,57.5));
#1213=CARTESIAN_POINT('',(-40.,-26.25,57.5));
#1214=CARTESIAN_POINT('',(17.5,-26.25,57.5000000000001));
#1215=CARTESIAN_POINT('Origin',(-40.,-26.25,53.75));
#1216=CARTESIAN_POINT('',(-40.,-22.5,53.75));
#1217=CARTESIAN_POINT('Origin',(17.5,-26.25,53.7500000000001));
#1218=CARTESIAN_POINT('',(17.5,-22.5,53.7500000000001));
#1219=CARTESIAN_POINT('Origin',(-11.25,-22.5,53.75));
#1220=UNCERTAINTY_MEASURE_WITH_UNIT(LENGTH_MEASURE(0.01),#1224,
'DISTANCE_ACCURACY_VALUE',
'Maximum model space distance between geometric entities at asserted c
onnectivities');
#1221=UNCERTAINTY_MEASURE_WITH_UNIT(LENGTH_MEASURE(0.01),#1224,
'DISTANCE_ACCURACY_VALUE',
'Maximum model space distance between geometric entities at asserted c
onnectivities');
#1222=(
GEOMETRIC_REPRESENTATION_CONTEXT(3)
GLOBAL_UNCERTAINTY_ASSIGNED_CONTEXT((#1220))
GLOBAL_UNIT_ASSIGNED_CONTEXT((#1224,#1226,#1227))
REPRESENTATION_CONTEXT('','3D')
);
#1223=(
GEOMETRIC_REPRESENTATION_CONTEXT(3)
GLOBAL_UNCERTAINTY_ASSIGNED_CONTEXT((#1221))
GLOBAL_UNIT_ASSIGNED_CONTEXT((#1224,#1226,#1227))
REPRESENTATION_CONTEXT('','3D')
);
#1224=(
LENGTH_UNIT()
NAMED_UNIT(*)
SI_UNIT(.MILLI.,.METRE.)
);
#1225=(
LENGTH_UNIT()
NAMED_UNIT(*)
SI_UNIT($,.METRE.)
);
#1226=(
NAMED_UNIT(*)
PLANE_ANGLE_UNIT()
SI_UNIT($,.RADIAN.)
);
#1227=(
NAMED_UNIT(*)
SI_UNIT($,.STERADIAN.)
SOLID_ANGLE_UNIT()
);
#1228=SHAPE_DEFINITION_REPRESENTATION(#1229,#1230);
#1229=PRODUCT_DEFINITION_SHAPE('',$,#1232);
#1230=SHAPE_REPRESENTATION('',(#784),#1222);
#1231=PRODUCT_DEFINITION_CONTEXT('part definition',#1236,'design');
#1232=PRODUCT_DEFINITION('2026-09-24-21-13-22-166',
'Escher''s Impossible Cube (Final)',#1233,#1231);
#1233=PRODUCT_DEFINITION_FORMATION('',$,#1238);
#1234=PRODUCT_RELATED_PRODUCT_CATEGORY(
'Escher''s Impossible Cube (Final)','Escher''s Impossible Cube (Final)',
(#1238));
#1235=APPLICATION_PROTOCOL_DEFINITION('international standard',
'automotive_design',2009,#1236);
#1236=APPLICATION_CONTEXT(
'Core Data for Automotive Mechanical Design Process');
#1237=PRODUCT_CONTEXT('part definition',#1236,'mechanical');
#1238=PRODUCT('2026-09-24-21-13-22-166',
'Escher''s Impossible Cube (Final)',$,(#1237));
#1239=PRESENTATION_STYLE_ASSIGNMENT((#1240));
#1240=SURFACE_STYLE_USAGE(.BOTH.,#1241);
#1241=SURFACE_SIDE_STYLE('',(#1242));
#1242=SURFACE_STYLE_FILL_AREA(#1243);
#1243=FILL_AREA_STYLE('Steel - Satin',(#1244));
#1244=FILL_AREA_STYLE_COLOUR('Steel - Satin',#1245);
#1245=COLOUR_RGB('Steel - Satin',0.627450980392157,0.627450980392157,0.627450980392157);
ENDSEC;
END-ISO-10303-21;
